<mxfile host="app.diagrams.net" modified="2022-02-19T11:21:26.885Z" agent="5.0 (Macintosh)" etag="Ioi-WSxMwmQq9xJZr_vI" version="16.2.4" type="github">
  <diagram id="8K5vzXTSY2BXtFvlyjsx" name="Page-1">
    <mxGraphModel dx="946" dy="612" grid="1" gridSize="10" guides="1" tooltips="1" connect="1" arrows="1" fold="1" page="1" pageScale="1" pageWidth="850" pageHeight="1100" math="0" shadow="0">
      <root>
        <mxCell id="0" />
        <mxCell id="1" parent="0" />
        <mxCell id="IJvPNz39FYbgItIuVcq_-1" value="" style="rounded=1;whiteSpace=wrap;html=1;fillColor=#f5f5f5;fontColor=#333333;strokeColor=#000000;" parent="1" vertex="1">
          <mxGeometry x="180" y="160" width="390" height="400" as="geometry" />
        </mxCell>
        <mxCell id="IJvPNz39FYbgItIuVcq_-56" value="&amp;nbsp;" style="rounded=0;whiteSpace=wrap;html=1;fontSize=7;fontColor=#080808;strokeColor=#080808;fillColor=#E8E8E8;" parent="1" vertex="1">
          <mxGeometry x="200.63" y="200" width="279.37" height="320" as="geometry" />
        </mxCell>
        <mxCell id="IJvPNz39FYbgItIuVcq_-57" value="&lt;b&gt;&lt;font style=&quot;font-size: 16px&quot;&gt;...&lt;/font&gt;&lt;/b&gt;" style="rounded=0;whiteSpace=wrap;html=1;fillColor=#dae8fc;strokeColor=#6c8ebf;fontColor=#000000;" parent="1" vertex="1">
          <mxGeometry x="414" y="230" width="56" height="180" as="geometry" />
        </mxCell>
        <mxCell id="IJvPNz39FYbgItIuVcq_-6" value="" style="rounded=0;whiteSpace=wrap;html=1;fillColor=#dae8fc;strokeColor=#6c8ebf;" parent="1" vertex="1">
          <mxGeometry x="210" y="230" width="200" height="180" as="geometry" />
        </mxCell>
        <mxCell id="IJvPNz39FYbgItIuVcq_-2" value="&lt;b&gt;Ultra96-V2&lt;/b&gt;" style="text;html=1;strokeColor=none;fillColor=none;align=center;verticalAlign=middle;whiteSpace=wrap;rounded=0;fontColor=#000000;" parent="1" vertex="1">
          <mxGeometry x="340" y="160" width="70" height="30" as="geometry" />
        </mxCell>
        <mxCell id="IJvPNz39FYbgItIuVcq_-4" value="&lt;b&gt;Zynq UltraScale+ MPSoC&lt;/b&gt;" style="text;html=1;strokeColor=none;fillColor=none;align=center;verticalAlign=middle;whiteSpace=wrap;rounded=0;fontColor=#000000;" parent="1" vertex="1">
          <mxGeometry x="272.5" y="201" width="150" height="30" as="geometry" />
        </mxCell>
        <mxCell id="IJvPNz39FYbgItIuVcq_-7" value="" style="rounded=0;whiteSpace=wrap;html=1;fillColor=#dae8fc;strokeColor=#6c8ebf;" parent="1" vertex="1">
          <mxGeometry x="210" y="420" width="260" height="90" as="geometry" />
        </mxCell>
        <mxCell id="IJvPNz39FYbgItIuVcq_-8" value="&lt;b&gt;&lt;font style=&quot;font-size: 10px&quot;&gt;PL&lt;/font&gt;&lt;/b&gt;" style="text;html=1;strokeColor=none;fillColor=none;align=center;verticalAlign=middle;whiteSpace=wrap;rounded=0;fontColor=#000000;" parent="1" vertex="1">
          <mxGeometry x="210" y="416" width="20" height="30" as="geometry" />
        </mxCell>
        <mxCell id="IJvPNz39FYbgItIuVcq_-16" style="edgeStyle=orthogonalEdgeStyle;rounded=0;orthogonalLoop=1;jettySize=auto;html=1;endSize=2;fontColor=#000000;strokeColor=#000000;" parent="1" source="IJvPNz39FYbgItIuVcq_-9" target="IJvPNz39FYbgItIuVcq_-14" edge="1">
          <mxGeometry relative="1" as="geometry" />
        </mxCell>
        <mxCell id="IJvPNz39FYbgItIuVcq_-9" value="Default IPs" style="rounded=0;whiteSpace=wrap;html=1;fillColor=#fff2cc;strokeColor=#d6b656;fontColor=#000000;" parent="1" vertex="1">
          <mxGeometry x="265" y="452.5" width="90" height="25" as="geometry" />
        </mxCell>
        <mxCell id="IJvPNz39FYbgItIuVcq_-13" value="" style="rounded=0;whiteSpace=wrap;html=1;dashed=1;fillColor=#fff2cc;strokeColor=#d6b656;" parent="1" vertex="1">
          <mxGeometry x="385.32" y="434.5" width="70" height="70" as="geometry" />
        </mxCell>
        <mxCell id="IJvPNz39FYbgItIuVcq_-12" value="" style="rounded=0;whiteSpace=wrap;html=1;dashed=1;fillColor=#fff2cc;strokeColor=#d6b656;" parent="1" vertex="1">
          <mxGeometry x="380.32" y="430.5" width="70" height="70" as="geometry" />
        </mxCell>
        <mxCell id="IJvPNz39FYbgItIuVcq_-15" style="edgeStyle=orthogonalEdgeStyle;rounded=0;orthogonalLoop=1;jettySize=auto;html=1;exitX=-0.014;exitY=0.564;exitDx=0;exitDy=0;exitPerimeter=0;dashed=1;endSize=2;fontColor=#000000;strokeColor=#000000;" parent="1" source="IJvPNz39FYbgItIuVcq_-11" target="IJvPNz39FYbgItIuVcq_-9" edge="1">
          <mxGeometry relative="1" as="geometry" />
        </mxCell>
        <mxCell id="IJvPNz39FYbgItIuVcq_-11" value="Custom IPs" style="rounded=0;whiteSpace=wrap;html=1;dashed=1;fillColor=#fff2cc;strokeColor=#d6b656;fontColor=#000000;" parent="1" vertex="1">
          <mxGeometry x="376.32" y="425.5" width="70" height="70" as="geometry" />
        </mxCell>
        <mxCell id="IJvPNz39FYbgItIuVcq_-17" value="&lt;b&gt;&lt;font style=&quot;font-size: 10px&quot;&gt;APU&lt;/font&gt;&lt;/b&gt;" style="text;html=1;strokeColor=none;fillColor=none;align=center;verticalAlign=middle;whiteSpace=wrap;rounded=0;fontColor=#000000;" parent="1" vertex="1">
          <mxGeometry x="295" y="230" width="30" height="20" as="geometry" />
        </mxCell>
        <mxCell id="IJvPNz39FYbgItIuVcq_-19" value="" style="rounded=0;whiteSpace=wrap;html=1;fillColor=#d5e8d4;strokeColor=#82b366;" parent="1" vertex="1">
          <mxGeometry x="230" y="390" width="235" height="25" as="geometry" />
        </mxCell>
        <mxCell id="IJvPNz39FYbgItIuVcq_-14" value="AXI Bus" style="rounded=0;whiteSpace=wrap;html=1;fillColor=#d5e8d4;strokeColor=#82b366;fontColor=#000000;" parent="1" vertex="1">
          <mxGeometry x="250" y="410" width="120" height="20.5" as="geometry" />
        </mxCell>
        <mxCell id="IJvPNz39FYbgItIuVcq_-20" value="Memory" style="text;html=1;strokeColor=none;fillColor=none;align=center;verticalAlign=middle;whiteSpace=wrap;rounded=0;fontColor=#000000;" parent="1" vertex="1">
          <mxGeometry x="230" y="390" width="50" height="20" as="geometry" />
        </mxCell>
        <mxCell id="IJvPNz39FYbgItIuVcq_-23" value="..." style="rounded=0;whiteSpace=wrap;html=1;fillColor=#d5e8d4;strokeColor=#82b366;direction=south;fontColor=#000000;" parent="1" vertex="1">
          <mxGeometry x="432" y="392.5" width="30" height="20" as="geometry" />
        </mxCell>
        <mxCell id="IJvPNz39FYbgItIuVcq_-35" style="edgeStyle=orthogonalEdgeStyle;rounded=0;orthogonalLoop=1;jettySize=auto;html=1;endSize=2;fontColor=#000000;strokeColor=#000000;" parent="1" source="IJvPNz39FYbgItIuVcq_-25" edge="1">
          <mxGeometry relative="1" as="geometry">
            <Array as="points">
              <mxPoint x="310" y="390" />
              <mxPoint x="310" y="390" />
            </Array>
            <mxPoint x="310" y="390" as="targetPoint" />
          </mxGeometry>
        </mxCell>
        <mxCell id="IJvPNz39FYbgItIuVcq_-25" value="Kernel Modules" style="rounded=0;whiteSpace=wrap;html=1;fillColor=#fff2cc;strokeColor=#d6b656;fontColor=#000000;" parent="1" vertex="1">
          <mxGeometry x="220" y="358" width="180" height="20" as="geometry" />
        </mxCell>
        <mxCell id="IJvPNz39FYbgItIuVcq_-34" style="edgeStyle=orthogonalEdgeStyle;rounded=0;orthogonalLoop=1;jettySize=auto;html=1;endSize=2;fontColor=#000000;strokeColor=#000000;" parent="1" source="IJvPNz39FYbgItIuVcq_-27" target="IJvPNz39FYbgItIuVcq_-25" edge="1">
          <mxGeometry relative="1" as="geometry">
            <Array as="points">
              <mxPoint x="310" y="350" />
              <mxPoint x="310" y="350" />
            </Array>
          </mxGeometry>
        </mxCell>
        <mxCell id="IJvPNz39FYbgItIuVcq_-27" value="&lt;font style=&quot;font-size: 12px&quot;&gt;Linux &lt;font style=&quot;font-size: 12px&quot;&gt;Kernel 5.4.0&lt;br&gt;&lt;/font&gt;&lt;/font&gt;" style="rounded=0;whiteSpace=wrap;html=1;fillColor=#fff2cc;strokeColor=#d6b656;fontColor=#000000;" parent="1" vertex="1">
          <mxGeometry x="220" y="327" width="180" height="20" as="geometry" />
        </mxCell>
        <mxCell id="IJvPNz39FYbgItIuVcq_-36" style="edgeStyle=orthogonalEdgeStyle;rounded=0;orthogonalLoop=1;jettySize=auto;html=1;endSize=2;fontColor=#000000;strokeColor=#000000;" parent="1" source="IJvPNz39FYbgItIuVcq_-29" target="IJvPNz39FYbgItIuVcq_-27" edge="1">
          <mxGeometry relative="1" as="geometry">
            <Array as="points">
              <mxPoint x="310" y="320" />
              <mxPoint x="310" y="320" />
            </Array>
          </mxGeometry>
        </mxCell>
        <mxCell id="IJvPNz39FYbgItIuVcq_-29" value="" style="rounded=0;whiteSpace=wrap;html=1;fillColor=#fff2cc;strokeColor=#d6b656;" parent="1" vertex="1">
          <mxGeometry x="220" y="246" width="180" height="70" as="geometry" />
        </mxCell>
        <mxCell id="IJvPNz39FYbgItIuVcq_-39" value="" style="rounded=1;whiteSpace=wrap;html=1;fillColor=#E8E8E8;strokeColor=#000000;" parent="1" vertex="1">
          <mxGeometry x="290" y="256" width="40" height="34" as="geometry" />
        </mxCell>
        <mxCell id="IJvPNz39FYbgItIuVcq_-42" value="" style="shape=image;verticalLabelPosition=bottom;labelBackgroundColor=default;verticalAlign=top;aspect=fixed;imageAspect=0;image=https://picknik.ai/assets/images/blog_posts/ROS2/ros2.png;" parent="1" vertex="1">
          <mxGeometry x="296" y="259" width="28" height="28" as="geometry" />
        </mxCell>
        <mxCell id="IJvPNz39FYbgItIuVcq_-51" value="" style="shape=image;verticalLabelPosition=bottom;labelBackgroundColor=default;verticalAlign=top;aspect=fixed;imageAspect=0;image=https://upload.wikimedia.org/wikipedia/commons/a/af/Tux.png;" parent="1" vertex="1">
          <mxGeometry x="235.66000000000003" y="328.5" width="14.34" height="17" as="geometry" />
        </mxCell>
        <mxCell id="IJvPNz39FYbgItIuVcq_-53" value="" style="shape=image;verticalLabelPosition=bottom;labelBackgroundColor=default;verticalAlign=top;aspect=fixed;imageAspect=0;image=http://c-nergy.be/blog/wp-content/uploads/u2004Logo2.png;" parent="1" vertex="1">
          <mxGeometry x="230" y="247.5" width="54.24" height="46" as="geometry" />
        </mxCell>
        <mxCell id="IJvPNz39FYbgItIuVcq_-54" value="&lt;div&gt;&lt;font style=&quot;font-size: 12px&quot; color=&quot;#080808&quot;&gt;FastRTPS&lt;/font&gt;&lt;/div&gt;&lt;div&gt;&lt;font style=&quot;font-size: 12px&quot; color=&quot;#080808&quot;&gt;&amp;gt;=v2.0.2&lt;br&gt;&lt;/font&gt;&lt;/div&gt;" style="rounded=1;whiteSpace=wrap;html=1;fillColor=#E8E8E8;fontColor=#333333;strokeColor=#080808;" parent="1" vertex="1">
          <mxGeometry x="330" y="256" width="65" height="34" as="geometry" />
        </mxCell>
        <mxCell id="IJvPNz39FYbgItIuVcq_-21" value="..." style="rounded=0;whiteSpace=wrap;html=1;fillColor=#d5e8d4;strokeColor=#82b366;direction=south;fontColor=#000000;" parent="1" vertex="1">
          <mxGeometry x="395" y="392.5" width="30" height="20" as="geometry" />
        </mxCell>
        <mxCell id="IJvPNz39FYbgItIuVcq_-58" value="&lt;b&gt;&lt;font style=&quot;font-size: 10px&quot;&gt;RPU&lt;/font&gt;&lt;/b&gt;" style="text;html=1;strokeColor=none;fillColor=none;align=center;verticalAlign=middle;whiteSpace=wrap;rounded=0;fontColor=#000000;" parent="1" vertex="1">
          <mxGeometry x="427" y="231" width="30" height="20" as="geometry" />
        </mxCell>
        <mxCell id="IJvPNz39FYbgItIuVcq_-60" value="" style="rounded=0;whiteSpace=wrap;html=1;fillColor=#E8E8E8;strokeColor=#030303;fontColor=#333333;" parent="1" vertex="1">
          <mxGeometry x="490" y="220" width="60" height="280" as="geometry" />
        </mxCell>
        <mxCell id="IJvPNz39FYbgItIuVcq_-63" value="USB" style="rounded=0;whiteSpace=wrap;html=1;fontSize=7;fontColor=#080808;strokeColor=#080808;fillColor=#E8E8E8;" parent="1" vertex="1">
          <mxGeometry x="500" y="231" width="90" height="59" as="geometry" />
        </mxCell>
        <mxCell id="IJvPNz39FYbgItIuVcq_-64" value="&lt;font style=&quot;font-size: 10px&quot;&gt;USB&lt;/font&gt;" style="rounded=0;whiteSpace=wrap;html=1;fontSize=7;fontColor=#080808;strokeColor=#080808;fillColor=#E8E8E8;" parent="1" vertex="1">
          <mxGeometry x="510" y="241" width="90" height="59" as="geometry" />
        </mxCell>
        <mxCell id="IJvPNz39FYbgItIuVcq_-65" value="..." style="rounded=0;whiteSpace=wrap;html=1;fontSize=7;fontColor=#080808;strokeColor=#080808;fillColor=#E8E8E8;" parent="1" vertex="1">
          <mxGeometry x="500" y="410" width="90" height="59" as="geometry" />
        </mxCell>
        <mxCell id="IJvPNz39FYbgItIuVcq_-66" value="..." style="rounded=0;whiteSpace=wrap;html=1;fontSize=7;fontColor=#080808;strokeColor=#080808;fillColor=#E8E8E8;" parent="1" vertex="1">
          <mxGeometry x="510" y="418.5" width="90" height="59" as="geometry" />
        </mxCell>
        <mxCell id="IJvPNz39FYbgItIuVcq_-67" value="&lt;font style=&quot;font-size: 11px&quot;&gt;&lt;b&gt;...&lt;/b&gt;&lt;/font&gt;" style="rounded=0;whiteSpace=wrap;html=1;fontSize=7;fontColor=#080808;strokeColor=#080808;fillColor=#E8E8E8;" parent="1" vertex="1">
          <mxGeometry x="520" y="427.5" width="90" height="59" as="geometry" />
        </mxCell>
        <mxCell id="IJvPNz39FYbgItIuVcq_-68" value="&lt;div style=&quot;font-size: 22px&quot;&gt;&lt;b&gt;&lt;font style=&quot;font-size: 22px&quot;&gt;...&lt;/font&gt;&lt;/b&gt;&lt;/div&gt;" style="text;html=1;align=center;verticalAlign=middle;resizable=0;points=[];autosize=1;strokeColor=none;fillColor=none;fontSize=7;fontColor=#080808;rotation=90;" parent="1" vertex="1">
          <mxGeometry x="510" y="348" width="30" height="10" as="geometry" />
        </mxCell>
        <mxCell id="IJvPNz39FYbgItIuVcq_-76" value="&lt;font style=&quot;font-size: 12px&quot;&gt;Added Packages&lt;/font&gt;" style="rounded=0;whiteSpace=wrap;html=1;dashed=1;fontSize=6;fontColor=#080808;strokeColor=#030303;fillColor=#E8E8E8;" parent="1" vertex="1">
          <mxGeometry x="230" y="294" width="160" height="16" as="geometry" />
        </mxCell>
        <mxCell id="IJvPNz39FYbgItIuVcq_-77" value="" style="curved=1;endArrow=classic;html=1;rounded=0;fontSize=6;fontColor=#080808;startSize=0;endSize=6;dashed=1;strokeWidth=1;" parent="1" source="IJvPNz39FYbgItIuVcq_-64" target="IJvPNz39FYbgItIuVcq_-78" edge="1">
          <mxGeometry width="50" height="50" relative="1" as="geometry">
            <mxPoint x="690" y="290" as="sourcePoint" />
            <mxPoint x="680" y="270" as="targetPoint" />
            <Array as="points">
              <mxPoint x="655" y="260" />
            </Array>
          </mxGeometry>
        </mxCell>
        <mxCell id="IJvPNz39FYbgItIuVcq_-78" value="&lt;div style=&quot;font-size: 11px&quot;&gt;&lt;font style=&quot;font-size: 11px&quot; color=&quot;#050505&quot;&gt;Flight Controller PX4&lt;/font&gt;&lt;font color=&quot;#050505&quot;&gt; rtps &amp;gt;=v1.12.0&lt;br&gt;&lt;/font&gt;&lt;/div&gt;" style="rounded=1;whiteSpace=wrap;html=1;fillColor=#f5f5f5;fontColor=#333333;strokeColor=#000000;dashed=1;" parent="1" vertex="1">
          <mxGeometry x="610" y="315" width="90" height="90" as="geometry" />
        </mxCell>
      </root>
    </mxGraphModel>
  </diagram>
</mxfile>
